<?xml version="1.0" encoding="utf-8"?>
<!-- Generator: Adobe Illustrator 16.0.0, SVG Export Plug-In . SVG Version: 6.00 Build 0)  -->
<!DOCTYPE svg PUBLIC "-//W3C//DTD SVG 1.1//EN" "http://www.w3.org/Graphics/SVG/1.1/DTD/svg11.dtd">
<svg version="1.1" id="Layer_1" xmlns="http://www.w3.org/2000/svg" xmlns:xlink="http://www.w3.org/1999/xlink" x="0px" y="0px"
	 width="550px" height="400px" viewBox="0 0 550 400" enable-background="new 0 0 550 400" xml:space="preserve">
<path fill-rule="evenodd" clip-rule="evenodd" fill="#F9C000" d="M344.6,128.95c-40.133,3.6-82.3,5.4-126.5,5.4
	c-0.467,0-0.95,0-1.45,0c-0.467,0-0.95,0-1.45,0L302.525,0h42L344.6,128.95z M344.65,290.95
	c-35.867,23.866-73.034,46.416-111.5,67.649c-26.505,14.614-54.747,28.414-84.725,41.4H42.6L132,262.45L0.5,137.5
	c72.733,5.5,141.667,8.517,206.8,9.05h0.05c48.1,0.333,93.85-1.45,137.25-5.35c75.9-6.9,144.534-20.367,205.9-40.4
	C490.1,176.3,421.483,239.684,344.65,290.95z M243.5,368.45c0.733-0.4,1.467-0.8,2.2-1.2c34-19.2,66.983-39.45,98.95-60.75V400
	H276.7L243.5,368.45z"/>
</svg>
