<?xml version="1.0" encoding="utf-8"?>
<!-- Generator: Adobe Illustrator 16.0.0, SVG Export Plug-In . SVG Version: 6.00 Build 0)  -->
<!DOCTYPE svg PUBLIC "-//W3C//DTD SVG 1.1//EN" "http://www.w3.org/Graphics/SVG/1.1/DTD/svg11.dtd">
<svg version="1.1" id="Layer_1" xmlns="http://www.w3.org/2000/svg" xmlns:xlink="http://www.w3.org/1999/xlink" x="0px" y="0px"
	 width="460px" height="400px" viewBox="0 0 460 400" enable-background="new 0 0 460 400" xml:space="preserve">
<path fill-rule="evenodd" clip-rule="evenodd" fill="#F9C000" d="M278,0l0.05,139.3c-15.655,1.415-31.672,2.507-48.05,3.275
	c-19.505,0.917-39.521,1.375-60.05,1.375c-0.367,0-0.767,0-1.2,0c-0.4,0-0.817,0-1.25,0L261.05,0H278z M278.05,149.8
	c64.867-5.9,123.517-17.417,175.95-34.55c-51.6,64.533-110.233,118.7-175.9,162.5c-15.733,10.495-31.767,20.687-48.1,30.575
	c-15.465,9.363-31.198,18.455-47.2,27.274c-43.587,24.03-92.671,45.497-147.25,64.4H1.175L96.4,253.45L0,161.775v-14
	c56.285,3.99,109.868,6.199,160.75,6.625h0.05c23.74,0.135,46.807-0.323,69.2-1.375C246.377,152.269,262.394,151.194,278.05,149.8z
	 M191.7,344.05c0.633-0.366,1.25-0.717,1.85-1.05c12.303-6.949,24.453-14.065,36.45-21.35c16.315-9.894,32.349-20.093,48.1-30.601
	V400h-27.524L191.7,344.05z"/>
</svg>
